<?xml version="1.0" encoding="UTF-8"?>
<svg id="_Слой_1" data-name="Слой 1" xmlns="http://www.w3.org/2000/svg" xmlns:xlink="http://www.w3.org/1999/xlink" viewBox="0 0 921.3 96.1">
  <defs>
    <style>
      .cls-1 {
        font-family: YuGothicUI-Regular, 'Yu Gothic UI';
        font-size: 30.61px;
      }

      .cls-1, .cls-2, .cls-3, .cls-4, .cls-5, .cls-6, .cls-7, .cls-8 {
        isolation: isolate;
      }

      .cls-1, .cls-7 {
        fill: #fff;
      }

      .cls-9 {
        fill: #2b2b31;
        stroke: #fff;
        stroke-width: 8.58px;
      }

      .cls-9, .cls-10 {
        stroke-miterlimit: 10;
      }

      .cls-11 {
        clip-path: url(#clippath-1);
      }

      .cls-2 {
        fill: url(#_Безымянный_градиент_3);
      }

      .cls-2, .cls-3, .cls-4, .cls-5, .cls-6 {
        opacity: .25;
      }

      .cls-3 {
        fill: url(#_Безымянный_градиент_5);
      }

      .cls-12 {
        clip-path: url(#clippath);
      }

      .cls-13 {
        fill: none;
      }

      .cls-4 {
        fill: url(#_Безымянный_градиент_4);
      }

      .cls-5 {
        fill: url(#_Безымянный_градиент_7);
      }

      .cls-14 {
        fill: #00beed;
      }

      .cls-10 {
        fill: #0096b9;
        stroke: url(#_Безымянный_градиент);
        stroke-width: 1.43px;
      }

      .cls-15 {
        fill: #60c3ac;
      }

      .cls-6 {
        fill: url(#_Безымянный_градиент_2);
      }

      .cls-7 {
        font-family: YuGothicUI-Bold, 'Yu Gothic UI';
        font-size: 16.07px;
        font-weight: 700;
      }

      .cls-8 {
        fill: url(#_Безымянный_градиент_6);
        opacity: .13;
      }
    </style>
    <clipPath id="clippath">
      <polyline class="cls-13" points="0 .1 0 .1 0 96.1 921.3 96.2 921.3 .1 0 .1"/>
    </clipPath>
    <clipPath id="clippath-1">
      <polyline class="cls-13" points="921.4 -3.1 921.4 96.1 -1.3 96.1 -1.3 -3.1 921.4 -3.1"/>
    </clipPath>
    <linearGradient id="_Безымянный_градиент" data-name="Безымянный градиент" x1="189.31" y1="1010.99" x2="935" y2="1010.99" gradientTransform="translate(2.95 -986.33) rotate(-.28)" gradientUnits="userSpaceOnUse">
      <stop offset="0" stop-color="#0097b9"/>
      <stop offset="1" stop-color="#00a6c1"/>
    </linearGradient>
    <linearGradient id="_Безымянный_градиент_2" data-name="Безымянный градиент 2" x1="3" y1="1002.55" x2="209.1" y2="1002.55" gradientTransform="translate(0 -982)" gradientUnits="userSpaceOnUse">
      <stop offset="0" stop-color="#f5f6f7" stop-opacity="0"/>
      <stop offset="1" stop-color="#000"/>
    </linearGradient>
    <linearGradient id="_Безымянный_градиент_3" data-name="Безымянный градиент 3" x1="2.08" y1="1006.33" x2="246.1" y2="1006.33" gradientTransform="translate(0 -982)" gradientUnits="userSpaceOnUse">
      <stop offset="0" stop-color="#f5f6f7" stop-opacity="0"/>
      <stop offset="1" stop-color="#000"/>
    </linearGradient>
    <linearGradient id="_Безымянный_градиент_4" data-name="Безымянный градиент 4" x1="251.4" y1="977" x2="471" y2="977" gradientTransform="translate(0 -982)" gradientUnits="userSpaceOnUse">
      <stop offset="0" stop-color="#f5f6f7" stop-opacity="0"/>
      <stop offset="1" stop-color="#000"/>
    </linearGradient>
    <linearGradient id="_Безымянный_градиент_5" data-name="Безымянный градиент 5" x1="217.5" y1="1023.7" x2="676" y2="1023.7" gradientTransform="translate(0 -982)" gradientUnits="userSpaceOnUse">
      <stop offset="0" stop-color="#f5f6f7" stop-opacity="0"/>
      <stop offset="1" stop-color="#000"/>
    </linearGradient>
    <linearGradient id="_Безымянный_градиент_6" data-name="Безымянный градиент 6" x1="303.6" y1="1029.4" x2="936.6" y2="1029.4" gradientTransform="translate(0 -982)" gradientUnits="userSpaceOnUse">
      <stop offset="0" stop-color="#f5f6f7" stop-opacity="0"/>
      <stop offset="1" stop-color="#000"/>
    </linearGradient>
    <linearGradient id="_Безымянный_градиент_7" data-name="Безымянный градиент 7" x1="427.5" y1="1031.15" x2="641.6" y2="1031.15" gradientTransform="translate(0 -982)" gradientUnits="userSpaceOnUse">
      <stop offset="0" stop-color="#f5f6f7" stop-opacity="0"/>
      <stop offset="1" stop-color="#000"/>
    </linearGradient>
  </defs>
  <g id="_Слой_1-2" data-name=" Слой 1">
    <g id="_01_razvorot" data-name=" 01 razvorot">
      <g class="cls-12">
        <g class="cls-11">
          <g>
            <g>
              <polygon class="cls-10" points="198.4 98.5 942.5 98.5 941.8 -57.4 221.6 -54.8 198.4 98.5"/>
              <path class="cls-9" d="m-17.9,102.9l215.9-.1c18,.8,35.9-3.7,53.1-13.4l33.5-18.9C374.4,19.9,468-5.9,562.2-5.9h379.1v-50.1H-13.9l-4,158.9Z"/>
              <g>
                <polygon class="cls-6" points="7.9 -56 209.1 95.8 3 97.1 7.9 -56"/>
                <path class="cls-2" d="m4.6,104L246.1-56H7.9S-2.6,116.7,4.6,104Z"/>
                <polygon class="cls-4" points="251.4 -56 329.8 46 471 -56 251.4 -56"/>
              </g>
            </g>
            <polygon class="cls-3" points="217.5 101.6 676 -18.2 306.6 3.3 217.5 101.6"/>
            <polygon class="cls-8" points="934.3 -4.5 531.9 99.3 303.6 1.1 319 98.5 936.6 99.3 934.3 -4.5"/>
            <polygon class="cls-5" points="427.5 1.1 536.2 97.2 641.6 1.1 427.5 1.1"/>
          </g>
        </g>
      </g>
      <g id="RUS_DKM_LOGO" data-name="RUS DKM LOGO">
        <rect class="cls-14" x="59.4" y="61.7" width="16.6" height="16.6"/>
        <rect class="cls-15" x="59.2" y="40.2" width="16.6" height="16.6"/>
        <rect class="cls-15" x="38.1" y="61.9" width="16.6" height="16.6"/>
        <text class="cls-1" transform="translate(81.58 61.1) scale(1.09 1)"><tspan x="0" y="0">ДКМ</tspan></text>
        <text class="cls-7" transform="translate(81.69 77.36) scale(1.12 1)"><tspan x="0" y="0">системы</tspan></text>
      </g>
    </g>
  </g>
</svg>